{"title":"Jatt Boys Putt Jattan De(2013) PUNJABI MOVIE DvdRIP GOPI SAHI-PD","uid":9068762,"size":522879724,"categoryP":"video","categoryS":"movies","magnet":"?xt=urn:btih:9289f3fde388a7abeb63e9f52ebc714365cf8985&amp;dn=Jatt+Boys+Putt+Jattan+De%282013%29+PUNJABI+MOVIE+DvdRIP+GOPI+SAHI-PD&amp;tr=udp%3A%2F%2Ftracker.openbittorrent.com%3A80&amp;tr=udp%3A%2F%2Fopen.demonii.com%3A1337&amp;tr=udp%3A%2F%2Ftracker.coppersurfer.tk%3A6969&amp;tr=udp%3A%2F%2Fexodus.desync.com%3A6969","seeders":1,"leechers":0,"uploader":"jatt13","files":1,"time":1382153593,"description":"[img]http://imageshack.us/a/img547/9959/s7j6.jpg[/img]\n[img]http://imageshack.us/a/img822/4365/mviq.jpg[/img]\n\nIMDB [url]http://www.imdb.com/title/tt3089920/[/url]\n\nVideo\nID                             : 1\nFormat                         : AVC\nFormat/Info                    : Advanced Video Codec\nFormat profile                 : &lt;a class=&quot;__cf_email__&quot; href=&quot;/cdn-cgi/l/email-protection&quot; data-cfemail=&quot;ffb29e9691bfb3cbd1cf&quot;&gt;[email&amp;#160;protected]&lt;/a&gt;&lt;script cf-hash='f9e31' type=&quot;text/javascript&quot;&gt;\n/* &lt;![CDATA[ */!function(){try{var t=&quot;currentScript&quot;in document?document.currentScript:function(){for(var t=document.getElementsByTagName(&quot;script&quot;),e=t.length;e--;)if(t[e].getAttribute(&quot;cf-hash&quot;))return t[e]}();if(t&amp;&amp;t.previousSibling){var e,r,n,i,c=t.previousSibling,a=c.getAttribute(&quot;data-cfemail&quot;);if(a){for(e=&quot;&quot;,r=parseInt(a.substr(0,2),16),n=2;a.length-n;n+=2)i=parseInt(a.substr(n,2),16)^r,e+=String.fromCharCode(i);e=document.createTextNode(e),c.parentNode.replaceChild(e,c)}}}catch(u){}}();/* ]]&gt; */&lt;/script&gt;\nFormat settings, CABAC         : Yes\nFormat settings, ReFrames      : 4 frames\nCodec ID                       : V_MPEG4/ISO/AVC\nDuration                       : 2h 3mn\nBit rate                       : 500 Kbps\nWidth                          : 672 pixels\nHeight                         : 288 pixels\nDisplay aspect ratio           : 2.35:1\nFrame rate mode                : Constant\nFrame rate                     : 29.970 fps\nColor space                    : YUV\nChroma subsampling             : 4:2:0\nBit depth                      : 8 bits\nScan type                      : Progressive\nBits/(Pixel*Frame)             : 0.086\nStream size                    : 432 MiB (87%)\nTitle                          : GOPI SAHI\nWriting library                : x264 core 130 \nLanguage                       : Panjabi\nDefault                        : Yes\nForced                         : No\nColor primaries                : BT.601 NTSC\nTransfer characteristics       : BT.709\nMatrix coefficients            : BT.601\n\nAudio\nID                             : 3\nFormat                         : AC-3\nFormat/Info                    : Audio Coding 3\nMode extension                 : CM (complete main)\nFormat settings, Endianness    : Big\nCodec ID                       : A_AC3\nDuration                       : 2h 3mn\nBit rate mode                  : Constant\nBit rate                       : 64.0 Kbps\nChannel count                  : 2 channels\nChannel positions              : Front: L R\nSampling rate                  : 44.1 KHz\nBit depth                      : 16 bits\nCompression mode               : Lossy\nStream size                    : 56.4 MiB (11%)\nTitle                          : GOPI SAHI\nLanguage                       : Panjabi\nDefault                        : Yes\nForced                         : No\n\n[img]http://imageshack.us/a/img706/4245/p3su.jpg[/img]\n[img]http://imageshack.us/a/img34/2854/885e.png[/img]\n[img]http://imageshack.us/a/img689/9546/w4y8.png[/img]\n[img]http://imageshack.us/a/img580/8127/fq07.png[/img]\n[img]http://imageshack.us/a/img23/3233/3jjs.png[/img]\n[img]http://imageshack.us/a/img32/8665/jhn.png[/img]\n[img]http://imageshack.us/a/img21/4043/65c.png[/img]\n","torrent":{"xt":"urn:btih:9289f3fde388a7abeb63e9f52ebc714365cf8985","amp;dn":"Jatt+Boys+Putt+Jattan+De%282013%29+PUNJABI+MOVIE+DvdRIP+GOPI+SAHI-PD","amp;tr":["udp%3A%2F%2Ftracker.openbittorrent.com%3A80","udp%3A%2F%2Fopen.demonii.com%3A1337","udp%3A%2F%2Ftracker.coppersurfer.tk%3A6969","udp%3A%2F%2Fexodus.desync.com%3A6969"],"infoHash":"9289f3fde388a7abeb63e9f52ebc714365cf8985","infoHashBuffer":{"type":"Buffer","data":[146,137,243,253,227,136,167,171,235,99,233,245,46,188,113,67,101,207,137,133]},"announce":[],"urlList":[]}}